<svg width="11" height="18" viewBox="0 0 11 18" fill="none" xmlns="http://www.w3.org/2000/svg">
<path d="M11 0.500053C11 0.367445 10.9473 0.240268 10.8536 0.1465C10.7598 0.052732 10.6326 5.3443e-05 10.5 5.3443e-05H8C6.74112 -0.0626557 5.5086 0.375445 4.57172 1.21863C3.63485 2.06182 3.06978 3.24155 3 4.50005V7.20005H0.5C0.367392 7.20005 0.240215 7.25273 0.146447 7.3465C0.0526785 7.44027 0 7.56744 0 7.70005V10.3001C0 10.4327 0.0526785 10.5598 0.146447 10.6536C0.240215 10.7474 0.367392 10.8001 0.5 10.8001H3V17.5001C3 17.6327 3.05268 17.7598 3.14645 17.8536C3.24021 17.9474 3.36739 18.0001 3.5 18.0001H6.5C6.63261 18.0001 6.75979 17.9474 6.85355 17.8536C6.94732 17.7598 7 17.6327 7 17.5001V10.8001H9.62C9.73119 10.8017 9.83974 10.7661 9.92848 10.6991C10.0172 10.6321 10.0811 10.5374 10.11 10.4301L10.83 7.83005C10.8499 7.75618 10.8526 7.67872 10.8378 7.60364C10.8231 7.52857 10.7913 7.45788 10.7449 7.39702C10.6985 7.33617 10.6388 7.28676 10.5704 7.25261C10.5019 7.21846 10.4265 7.20048 10.35 7.20005H7V4.50005C7.02487 4.25253 7.14111 4.02317 7.32602 3.85675C7.51093 3.69033 7.75123 3.59881 8 3.60005H10.5C10.6326 3.60005 10.7598 3.54737 10.8536 3.45361C10.9473 3.35984 11 3.23266 11 3.10005V0.500053Z" fill="#8E959D"/>
</svg>
