<svg width="16" height="12" viewBox="0 0 16 12" fill="none" xmlns="http://www.w3.org/2000/svg">
<path d="M15.6704 2.14021C15.5815 1.79749 15.4032 1.48452 15.1537 1.23328C14.9042 0.982045 14.5925 0.801539 14.2504 0.710209C12.1765 0.464359 10.0887 0.354124 8.00042 0.380209C5.91213 0.354124 3.82436 0.464359 1.75042 0.710209C1.40833 0.801539 1.09663 0.982045 0.847144 1.23328C0.597661 1.48452 0.419346 1.79749 0.330419 2.14021C0.103394 3.41418 -0.00706255 4.70619 0.000419326 6.00021C-0.00772318 7.30088 0.102734 8.59959 0.330419 9.88021C0.423954 10.2174 0.604317 10.5241 0.853494 10.7698C1.10267 11.0155 1.41194 11.1915 1.75042 11.2802C3.82436 11.5261 5.91213 11.6363 8.00042 11.6102C10.0887 11.6363 12.1765 11.5261 14.2504 11.2802C14.5889 11.1915 14.8982 11.0155 15.1473 10.7698C15.3965 10.5241 15.5769 10.2174 15.6704 9.88021C15.8981 8.59959 16.0086 7.30088 16.0004 6.00021C16.0079 4.70619 15.8974 3.41418 15.6704 2.14021ZM6.36042 8.39021V3.63021L10.5504 6.00021L6.36042 8.38021V8.39021Z" fill="#8E959D"/>
</svg>
